<?xml version="1.0" standalone="no"?>
<!DOCTYPE svg PUBLIC "-//W3C//DTD SVG 20010904//EN"
 "http://www.w3.org/TR/2001/REC-SVG-20010904/DTD/svg10.dtd">
<svg version="1.0" xmlns="http://www.w3.org/2000/svg"
 width="2413.000000pt" height="3327.000000pt" viewBox="0 0 2413.000000 3327.000000"
 preserveAspectRatio="xMidYMid meet">

<g transform="translate(0.000000,3327.000000) scale(0.100000,-0.100000)"
fill="#000000" stroke="none">
<path d="M24110 16635 l0 -16625 -12052 -3 -12053 -2 12058 -3 12057 -2 0
16630 c0 9147 -2 16630 -5 16630 -3 0 -5 -7481 -5 -16625z"/>
<path d="M16355 23107 l-6750 -8053 -3 7848 -2 7848 -3030 0 -3030 0 0 -4277
0 -4278 -29 30 c-16 17 -412 482 -881 1035 -469 553 -858 1012 -866 1020 -12
12 -14 -464 -14 -3301 l0 -3316 897 -1053 896 -1053 -7 -6078 c-5 -4191 -4
-6079 3 -6083 5 -4 3727 -3 8271 0 l8260 7 0 2609 0 2608 -4953 2 -4954 3
6464 11250 c3555 6188 6468 11258 6474 11268 5 9 8 17 6 17 -1 0 -3040 -3624
-6752 -8053z"/>
<path d="M19325 2520 c-270 -54 -444 -317 -474 -716 -27 -358 54 -669 219
-834 105 -106 211 -145 390 -144 206 2 321 50 507 213 l53 46 0 353 0 352
-275 0 -275 0 0 -170 0 -170 120 0 120 0 0 -79 c0 -78 0 -79 -35 -105 -151
-116 -309 -107 -394 21 -61 92 -87 243 -78 453 10 238 66 367 179 414 108 46
217 -7 263 -128 10 -25 19 -46 22 -46 26 0 333 85 333 92 0 29 -36 142 -65
205 -39 85 -114 169 -179 201 -25 13 -75 29 -113 37 -72 16 -251 18 -318 5z"/>
<path d="M3550 1675 l0 -825 318 0 c501 0 594 26 681 190 130 243 70 569 -122
666 l-50 26 29 17 c48 29 100 95 125 157 21 52 24 75 23 189 0 110 -3 138 -22
185 -32 80 -88 148 -152 184 l-55 31 -387 3 -388 3 0 -826z m595 481 c20 -9
41 -28 51 -48 23 -44 23 -142 1 -185 -28 -54 -54 -64 -176 -70 l-111 -6 0 162
0 161 100 0 c64 0 113 -5 135 -14z m34 -634 c52 -26 74 -63 79 -130 3 -45 -1
-70 -16 -105 -29 -66 -59 -78 -209 -85 l-123 -5 0 172 0 171 118 0 c92 0 124
-4 151 -18z"/>
<path d="M4810 1675 l0 -825 318 0 c424 0 529 18 615 104 46 46 93 137 112
218 29 125 13 303 -36 399 -27 53 -100 125 -144 141 -19 6 -35 14 -35 18 1 3
19 17 41 33 178 123 183 504 9 660 -84 76 -92 77 -512 77 l-368 0 0 -825z
m598 475 c59 -36 80 -135 46 -220 -24 -59 -55 -72 -183 -74 l-106 -1 -3 158
-3 157 108 0 c91 0 113 -3 141 -20z m32 -628 c50 -25 74 -72 74 -146 -1 -63
-17 -107 -51 -139 -27 -24 -116 -38 -215 -35 l-83 3 -3 168 -2 167 122 0 c97
0 130 -4 158 -18z"/>
<path d="M6060 1675 l0 -825 455 0 455 0 0 205 0 205 -280 0 -280 0 0 620 0
620 -175 0 -175 0 0 -825z"/>
<path d="M7140 1675 l0 -825 175 0 175 0 0 197 0 197 92 138 c50 77 95 135 99
131 4 -4 59 -154 123 -332 64 -179 118 -326 120 -328 2 -2 100 -2 218 -1 l215
3 -219 513 -219 513 206 304 c113 167 205 307 205 310 0 3 -105 5 -233 5
l-233 0 -178 -300 c-98 -165 -182 -303 -187 -306 -5 -3 -9 128 -9 300 l0 306
-175 0 -175 0 0 -825z"/>
<path d="M9020 1675 l0 -825 175 0 175 0 0 305 0 305 103 0 c136 0 231 15 293
45 104 51 177 156 209 301 24 107 17 342 -14 436 -26 82 -73 152 -129 195 -78
59 -109 63 -479 63 l-333 0 0 -825z m558 468 c48 -36 67 -80 67 -158 0 -78
-19 -122 -68 -159 -23 -17 -46 -22 -118 -24 l-89 -4 0 187 0 187 90 -4 c71 -3
96 -9 118 -25z"/>
<path d="M10356 2483 c-3 -10 -98 -373 -211 -808 -114 -434 -209 -798 -211
-807 -5 -17 8 -18 175 -18 162 0 180 2 185 18 2 9 14 62 26 117 11 55 23 108
26 118 5 15 24 17 208 17 l204 0 6 -32 c3 -18 16 -79 27 -135 l22 -103 183 0
c141 0 184 3 183 13 0 6 -96 377 -213 822 l-213 810 -196 3 c-180 2 -196 1
-201 -15z m324 -1000 c0 -2 -56 -3 -125 -3 -99 0 -125 3 -125 14 0 12 100 492
116 556 5 17 27 -72 70 -270 35 -162 63 -296 64 -297z"/>
<path d="M11300 1675 l0 -825 455 0 455 0 0 205 0 205 -275 0 -275 0 0 620 0
620 -180 0 -180 0 0 -825z"/>
<path d="M12380 1675 l0 -825 485 0 485 0 0 185 0 185 -310 0 -310 0 0 165 0
165 280 0 280 0 -2 168 -3 167 -277 3 -278 2 0 130 0 130 300 0 300 0 0 175 0
175 -475 0 -475 0 0 -825z"/>
<path d="M13540 1675 l0 -825 145 0 145 0 2 617 3 616 110 -616 109 -617 132
0 132 0 5 28 c2 15 51 289 108 609 l104 582 3 -609 2 -610 150 0 150 0 0 825
0 825 -237 -2 -236 -3 -88 -489 c-48 -268 -89 -490 -92 -492 -2 -2 -20 89 -41
204 -20 114 -60 336 -88 495 l-51 287 -234 0 -233 0 0 -825z"/>
<path d="M15060 1675 l0 -825 323 0 c426 0 525 16 610 98 79 76 125 189 134
328 13 208 -57 371 -185 430 -23 10 -42 22 -42 26 0 3 16 16 35 28 150 93 188
414 70 599 -13 21 -43 55 -66 75 -74 63 -98 66 -511 66 l-368 0 0 -825z m595
481 c47 -20 67 -55 72 -129 3 -47 0 -70 -14 -96 -33 -63 -57 -73 -179 -74
l-109 -2 -3 158 -3 157 101 0 c64 0 113 -5 135 -14z m40 -630 c51 -22 75 -68
75 -146 0 -79 -21 -126 -69 -154 -29 -17 -54 -20 -155 -20 l-121 -1 -3 168 -2
167 120 0 c82 0 132 -5 155 -14z"/>
<path d="M16392 1682 c-117 -449 -213 -820 -213 -824 1 -5 81 -8 180 -8 l178
0 28 135 28 135 203 0 c203 0 204 0 209 -22 3 -13 16 -72 29 -133 l22 -110
188 -3 c176 -2 187 -1 182 15 -8 26 -426 1623 -426 1628 0 3 -89 5 -197 5
l-198 0 -213 -818z m469 101 c32 -153 59 -284 59 -290 0 -10 -32 -13 -126 -13
-97 0 -125 3 -122 13 3 6 31 139 64 294 32 155 60 280 62 278 2 -2 30 -129 63
-282z"/>
<path d="M17550 1675 l0 -825 165 0 165 0 0 452 c0 249 4 448 8 442 5 -5 103
-208 218 -451 l209 -443 168 0 167 0 0 825 0 825 -165 0 -165 0 0 -452 c0
-248 -3 -448 -7 -444 -5 4 -103 206 -218 449 l-211 442 -167 3 -167 2 0 -825z"/>
</g>
</svg>
